<svg width="165" height="34" viewBox="0 0 165 34" fill="none" xmlns="http://www.w3.org/2000/svg">
<path d="M3.9565 26.7056C2.83067 26.7056 1.88175 26.3357 1.10975 25.5959C0.369917 24.856 0 23.9071 0 22.7491C0 21.5911 0.369917 20.6583 1.10975 19.9506C1.88175 19.2108 2.83067 18.8409 3.9565 18.8409C5.08233 18.8409 6.01517 19.2108 6.755 19.9506C7.527 20.6905 7.913 21.6233 7.913 22.7491C7.913 23.9071 7.527 24.856 6.755 25.5959C6.01517 26.3357 5.08233 26.7056 3.9565 26.7056Z" fill="#FFC36A"/>
<path d="M12.987 33.9636V0.0366211H16.3087V33.9636H12.987Z" fill="#FFC36A"/>
<path d="M28.3088 29.1138L33.1586 12.1396H37.7659L42.5914 29.1138H39.8997L38.7843 25.1127H32.1401L31.0247 29.1138H28.3088ZM32.7949 22.6879H38.1296L35.6562 13.7643H35.2682L32.7949 22.6879Z" fill="#111827"/>
<path d="M50.5167 29.4533C49.3689 29.4533 48.3262 29.2108 47.3886 28.7258C46.4672 28.2408 45.7316 27.5376 45.182 26.6162C44.6485 25.6947 44.3818 24.5873 44.3818 23.2941V22.9788C44.3818 21.6856 44.6485 20.5863 45.182 19.681C45.7316 18.7596 46.4672 18.0563 47.3886 17.5714C48.3262 17.0702 49.3689 16.8197 50.5167 16.8197C51.6645 16.8197 52.6425 17.0298 53.4508 17.4501C54.2591 17.8704 54.9057 18.4282 55.3907 19.1233C55.8919 19.8184 56.2152 20.5863 56.3607 21.4269L53.9358 21.9361C53.855 21.4027 53.6852 20.9177 53.4266 20.4812C53.1679 20.0447 52.8042 19.6972 52.3354 19.4385C51.8666 19.1799 51.2765 19.0505 50.5652 19.0505C49.8701 19.0505 49.2396 19.2122 48.6738 19.5355C48.1242 19.8427 47.6877 20.2953 47.3644 20.8934C47.0411 21.4754 46.8794 22.1867 46.8794 23.0273V23.2456C46.8794 24.0862 47.0411 24.8056 47.3644 25.4037C47.6877 26.0019 48.1242 26.4545 48.6738 26.7616C49.2396 27.0688 49.8701 27.2224 50.5652 27.2224C51.616 27.2224 52.4162 26.9556 52.9658 26.4222C53.5155 25.8725 53.863 25.1774 54.0085 24.3368L56.4334 24.8945C56.2394 25.719 55.8919 26.4787 55.3907 27.1739C54.9057 27.869 54.2591 28.4267 53.4508 28.847C52.6425 29.2512 51.6645 29.4533 50.5167 29.4533Z" fill="#111827"/>
<path d="M59.3141 29.1138V12.1396H61.8117V18.8566H62.1997C62.3613 18.5494 62.5877 18.2503 62.8787 17.9593C63.1858 17.6684 63.5819 17.434 64.0668 17.2561C64.568 17.0621 65.1984 16.9651 65.9582 16.9651C66.8635 16.9651 67.6637 17.1672 68.3589 17.5714C69.0702 17.9755 69.6279 18.5494 70.032 19.293C70.4362 20.0205 70.6383 20.9015 70.6383 21.9361V29.1138H68.1406V22.1301C68.1406 21.0955 67.882 20.3357 67.3647 19.8508C66.8474 19.3496 66.1361 19.099 65.2308 19.099C64.1962 19.099 63.3636 19.4385 62.7332 20.1175C62.1189 20.7965 61.8117 21.7826 61.8117 23.0758V29.1138H59.3141Z" fill="#111827"/>
<path d="M78.3872 29.1138C77.6598 29.1138 77.0778 28.8955 76.6413 28.4591C76.221 28.0226 76.0109 27.4406 76.0109 26.7131V19.2688H72.713V17.1591H76.0109V13.2066H78.5085V17.1591H82.0731V19.2688H78.5085V26.2767C78.5085 26.7616 78.7348 27.0041 79.1875 27.0041H81.6851V29.1138H78.3872Z" fill="#111827"/>
<path d="M90.0613 29.4533C88.8489 29.4533 87.79 29.2027 86.8847 28.7015C85.9794 28.1842 85.2681 27.4649 84.7508 26.5434C84.2497 25.6058 83.9991 24.5227 83.9991 23.2941V23.0031C83.9991 21.7583 84.2497 20.6752 84.7508 19.7538C85.252 18.8161 85.9471 18.0968 86.8362 17.5956C87.7415 17.0783 88.7842 16.8197 89.9643 16.8197C91.1121 16.8197 92.1144 17.0783 92.9712 17.5956C93.8441 18.0968 94.5231 18.8 95.0081 19.7053C95.493 20.6105 95.7355 21.6694 95.7355 22.8818V23.8275H86.5452C86.5776 24.8783 86.9251 25.7189 87.5879 26.3494C88.2669 26.9637 89.1075 27.2709 90.1098 27.2709C91.0474 27.2709 91.7506 27.0607 92.2195 26.6404C92.7044 26.2201 93.0762 25.7351 93.3349 25.1855L95.396 26.2524C95.1697 26.7051 94.8383 27.182 94.4018 27.6831C93.9815 28.1842 93.4238 28.6046 92.7287 28.944C92.0335 29.2835 91.1444 29.4533 90.0613 29.4533ZM86.5695 21.9119H93.1894C93.1247 21.0066 92.8014 20.3034 92.2195 19.8023C91.6375 19.2849 90.8777 19.0263 89.9401 19.0263C89.0024 19.0263 88.2346 19.2849 87.6364 19.8023C87.0545 20.3034 86.6988 21.0066 86.5695 21.9119Z" fill="#111827"/>
<path d="M98.742 29.1138V17.1591H101.191V18.9535H101.579C101.805 18.4686 102.21 18.0159 102.792 17.5956C103.373 17.1753 104.238 16.9651 105.386 16.9651C106.291 16.9651 107.092 17.1672 107.787 17.5714C108.498 17.9755 109.056 18.5494 109.46 19.293C109.864 20.0205 110.066 20.9015 110.066 21.9361V29.1138H107.569V22.1301C107.569 21.0955 107.31 20.3357 106.793 19.8508C106.275 19.3496 105.564 19.099 104.659 19.099C103.624 19.099 102.792 19.4385 102.161 20.1175C101.547 20.7965 101.24 21.7826 101.24 23.0758V29.1138H98.742Z" fill="#111827"/>
<path d="M120.572 29.4533C119.408 29.4533 118.51 29.2431 117.88 28.8228C117.266 28.4025 116.805 27.9337 116.498 27.4164H116.11V29.1138H113.661V12.1396H116.158V18.7838H116.546C116.74 18.4605 116.999 18.1533 117.322 17.8624C117.646 17.5552 118.074 17.3046 118.607 17.1106C119.141 16.9167 119.796 16.8197 120.572 16.8197C121.574 16.8197 122.495 17.0621 123.336 17.5471C124.177 18.0321 124.847 18.7353 125.349 19.6568C125.85 20.5782 126.1 21.6775 126.1 22.9546V23.3183C126.1 24.6116 125.842 25.7189 125.324 26.6404C124.823 27.5457 124.152 28.2408 123.312 28.7258C122.487 29.2108 121.574 29.4533 120.572 29.4533ZM119.844 27.2709C120.927 27.2709 121.816 26.9233 122.511 26.2282C123.223 25.533 123.578 24.5388 123.578 23.2456V23.0273C123.578 21.7502 123.231 20.7641 122.536 20.069C121.841 19.3739 120.943 19.0263 119.844 19.0263C118.777 19.0263 117.888 19.3739 117.177 20.069C116.482 20.7641 116.134 21.7502 116.134 23.0273V23.2456C116.134 24.5388 116.482 25.533 117.177 26.2282C117.888 26.9233 118.777 27.2709 119.844 27.2709Z" fill="#111827"/>
<path d="M134.675 29.4533C133.463 29.4533 132.404 29.2027 131.499 28.7015C130.593 28.1842 129.882 27.4649 129.365 26.5434C128.864 25.6058 128.613 24.5227 128.613 23.2941V23.0031C128.613 21.7583 128.864 20.6752 129.365 19.7538C129.866 18.8161 130.561 18.0968 131.45 17.5956C132.355 17.0783 133.398 16.8197 134.578 16.8197C135.726 16.8197 136.728 17.0783 137.585 17.5956C138.458 18.0968 139.137 18.8 139.622 19.7053C140.107 20.6105 140.349 21.6694 140.349 22.8818V23.8275H131.159C131.191 24.8783 131.539 25.7189 132.202 26.3494C132.881 26.9637 133.721 27.2709 134.724 27.2709C135.661 27.2709 136.365 27.0607 136.833 26.6404C137.318 26.2201 137.69 25.7351 137.949 25.1855L140.01 26.2524C139.784 26.7051 139.452 27.182 139.016 27.6831C138.595 28.1842 138.038 28.6046 137.343 28.944C136.647 29.2835 135.758 29.4533 134.675 29.4533ZM131.183 21.9119H137.803C137.739 21.0066 137.415 20.3034 136.833 19.8023C136.251 19.2849 135.492 19.0263 134.554 19.0263C133.616 19.0263 132.848 19.2849 132.25 19.8023C131.668 20.3034 131.313 21.0066 131.183 21.9119Z" fill="#111827"/>
<path d="M143.356 29.1138V17.1591H145.805V18.5656H146.193C146.387 18.0644 146.694 17.7007 147.114 17.4744C147.551 17.2319 148.084 17.1106 148.715 17.1106H150.146V19.3658H148.618C147.81 19.3658 147.147 19.5921 146.629 20.0447C146.112 20.4812 145.854 21.1602 145.854 22.0816V29.1138H143.356Z" fill="#111827"/>
<path d="M151.725 23.1971V22.8333C151.725 21.5724 151.976 20.4974 152.477 19.6083C152.994 18.7191 153.673 18.0321 154.514 17.5471C155.354 17.0621 156.276 16.8197 157.278 16.8197C158.442 16.8197 159.331 17.0379 159.945 17.4744C160.576 17.9109 161.037 18.3797 161.328 18.8808H161.716V17.1591H164.141V31.5629C164.141 32.2904 163.922 32.8723 163.486 33.3088C163.065 33.7453 162.483 33.9635 161.74 33.9635H153.689V31.7811H160.964C161.433 31.7811 161.667 31.5387 161.667 31.0537V27.2466H161.279C161.101 27.5376 160.851 27.8367 160.527 28.1438C160.204 28.451 159.776 28.7015 159.242 28.8955C158.725 29.0895 158.07 29.1865 157.278 29.1865C156.276 29.1865 155.346 28.9521 154.489 28.4833C153.649 27.9983 152.978 27.3113 152.477 26.4222C151.976 25.5169 151.725 24.4418 151.725 23.1971ZM157.957 27.0041C159.04 27.0041 159.929 26.6646 160.624 25.9857C161.336 25.2906 161.691 24.3368 161.691 23.1243V22.9061C161.691 21.6613 161.344 20.7075 160.649 20.0447C159.954 19.3658 159.056 19.0263 157.957 19.0263C156.89 19.0263 156.001 19.3658 155.29 20.0447C154.595 20.7075 154.247 21.6613 154.247 22.9061V23.1243C154.247 24.3368 154.595 25.2906 155.29 25.9857C156.001 26.6646 156.89 27.0041 157.957 27.0041Z" fill="#111827"/>
</svg>
