<svg width="538" height="213" viewBox="0 0 538 213" fill="none" xmlns="http://www.w3.org/2000/svg">
<path d="M105.46 119C101.107 118.73 96.8489 117.605 92.93 115.69L137.42 71.9599L153.6 55.9999C148.325 48.5853 141.346 42.5461 133.25 38.3905C125.155 34.2349 116.18 32.0844 107.08 32.1199C79.59 32.4199 54.89 53.5999 52.34 81.2799C51.2875 93.4505 54.5088 105.608 61.45 115.66C65.6147 121.796 70.9129 127.081 77.06 131.23C85.4985 137.01 95.3994 140.286 105.62 140.68C124.62 141.27 141.96 131 152.45 116.18L136.94 101.62C133.797 107.13 129.196 111.668 123.643 114.734C118.089 117.8 111.798 119.276 105.46 119V119ZM74 85.5599C74.45 68.1699 89.28 54.7599 105.68 53.8799C110.823 53.6189 115.956 54.5498 120.68 56.5999L77.14 99.9999C74.9446 95.5101 73.8673 90.556 74 85.5599V85.5599Z" fill="#505AE9"/>
<path d="M159.51 30.48V134.05C158.74 136.05 157.92 139.61 156.57 142.63C155.457 145.064 153.969 147.308 152.16 149.28C145.43 157.12 136.16 159.82 133.42 160.53L115.89 160.71V182.22H129.7C130.7 182.3 131.6 182.34 132.57 182.34C137.951 182.347 143.258 181.087 148.06 178.66H148.11C148.92 178.32 149.71 177.94 150.48 177.54C152.603 176.526 154.614 175.293 156.48 173.86V173.86C157.48 173.27 158.48 172.63 159.48 171.95C161.146 170.747 162.696 169.391 164.11 167.9V167.9C167.301 165.244 169.975 162.024 172 158.4C173.942 155.932 175.524 153.202 176.7 150.29C179.851 145.07 181.511 139.087 181.5 132.99V30.48H159.51Z" fill="#505AE9"/>
<path d="M116.83 120.37C116.65 120.66 116.48 120.96 116.31 121.26L116.63 120.86C116.69 120.7 116.76 120.53 116.83 120.37Z" fill="#505AE9"/>
<path d="M117.58 119.19L117.24 119.4C117.12 119.65 117.01 119.91 116.9 120.17L116.99 120.09C117.18 119.79 117.37 119.49 117.58 119.19Z" fill="#505AE9"/>
<path d="M118.85 118.38L118.43 118.82L119.36 118.08L118.85 118.38Z" fill="#505AE9"/>
<path d="M297.88 84.76V83.71V83.58C297.734 79.6685 297.157 75.785 296.16 72C293.054 60.3454 286.177 50.0471 276.601 42.7131C267.026 35.3791 255.291 31.4222 243.23 31.46C213.04 31.46 188.57 55.69 188.57 85.58C188.653 98.9512 193.656 111.824 202.623 121.743C211.59 131.662 223.895 137.933 237.19 139.36H297.57L297.87 87.36C297.87 86.7533 297.87 86.1433 297.87 85.53C297.9 85.31 297.89 85 297.88 84.76ZM274.76 118.7C269.64 118.78 260.27 118.8 242.44 118.42C237.148 118.391 231.947 117.04 227.31 114.49C222.129 111.629 217.812 107.428 214.812 102.326C211.813 97.2236 210.24 91.4086 210.26 85.49C210.26 67.29 224.76 52.55 242.66 52.55C257.32 52.55 268.03 62.65 272.22 72.01C272.224 72.0432 272.224 72.0767 272.22 72.11C273.815 75.7397 274.756 79.6227 275 83.58C274.907 95.2933 274.827 107 274.76 118.7Z" fill="#505AE9"/>
<path d="M369.24 53.59V31.2H353.08V31.68C343.357 31.6388 333.914 34.9278 326.32 41V41L326.11 41.13C322.839 43.355 319.914 46.0507 317.43 49.13C313.195 52.8666 309.806 57.4641 307.491 62.6152C305.175 67.7662 303.985 73.3522 304 79V140.25H326.08V79C327.958 71.4035 332.328 64.6556 338.491 59.8338C344.654 55.0121 352.255 52.3948 360.08 52.4C363.177 52.3954 366.262 52.8057 369.25 53.6199L369.24 53.59Z" fill="#505AE9"/>
<path d="M484.92 84.77V83.71C484.92 83.71 484.92 83.62 484.92 83.58C484.771 79.6681 484.191 75.7846 483.19 72C480.084 60.3454 473.207 50.0471 463.631 42.7131C454.056 35.3791 442.321 31.4222 430.26 31.46C400.07 31.46 375.6 55.69 375.6 85.58C375.683 98.9512 380.686 111.824 389.653 121.743C398.62 131.662 410.925 137.933 424.22 139.36H484.61L484.9 87.36C484.9 86.76 484.9 86.15 484.9 85.54C484.93 85.31 484.92 85 484.92 84.77ZM461.8 118.7C456.67 118.78 447.3 118.8 429.47 118.42C424.178 118.391 418.977 117.04 414.34 114.49C409.168 111.623 404.861 107.419 401.871 102.317C398.88 97.2151 397.315 91.4036 397.34 85.49C397.34 67.29 411.84 52.55 429.74 52.55C444.4 52.55 455.11 62.65 459.3 72.01C459.321 72.0412 459.337 72.0748 459.35 72.11C460.9 75.7479 461.797 79.6306 462 83.58C461.933 95.2933 461.867 107 461.8 118.7Z" fill="#505AE9"/>
</svg>
