<svg width="20" height="20" viewBox="0 0 20 20" fill="none" xmlns="http://www.w3.org/2000/svg">
<g clip-path="url(#clip0_251_1302)">
<path d="M20 15.4967C19.2725 15.6817 18.8225 15.5048 18.4187 14.8985L15.5475 10.926L15.1325 10.376L11.7794 14.9117C11.3962 15.4573 10.9944 15.6948 10.2794 15.5017L14.5731 9.7379L10.5756 4.53165C11.2631 4.3979 11.7381 4.46603 12.16 5.08165L15.1381 9.10353L18.1381 5.10353C18.5225 4.5579 18.9356 4.3504 19.6256 4.55165L18.0756 6.60665L15.9756 9.34103C15.7256 9.65353 15.76 9.86728 15.99 10.1692L20 15.4967ZM0.005 9.64165L0.35625 7.91415C1.3125 4.4954 5.23125 3.07478 7.93375 5.18728C9.51313 6.42978 9.90563 8.18728 9.8275 10.156H0.925C0.79125 13.6998 3.34188 15.8385 6.59375 14.7473C7.73438 14.3642 8.40625 13.471 8.7425 12.3535C8.91313 11.7935 9.19563 11.706 9.72188 11.866C9.45312 13.2635 8.84687 14.431 7.56562 15.1617C5.65125 16.2554 2.91875 15.9017 1.48125 14.3817C0.625 13.4998 0.27125 12.3823 0.1125 11.1873C0.0875 10.9898 0.0375 10.8017 0 10.6123C0.00333333 10.2889 0.005 9.96561 0.005 9.64228V9.64165ZM0.94125 9.40415H8.98625C8.93375 6.84165 7.33812 5.02165 5.1575 5.00603C2.76375 4.98728 1.045 6.76415 0.94125 9.40415Z" fill="black"/>
</g>
<defs>
<clipPath id="clip0_251_1302">
<rect width="20" height="20" fill="white"/>
</clipPath>
</defs>
</svg>
