<svg width="26" height="26" viewBox="0 0 26 26" fill="none" xmlns="http://www.w3.org/2000/svg">
<g clip-path="url(#clip0_340_496)">
<path d="M25.9854 5.87168C25.995 5.90625 26 5.9419 26 5.97775V11.5488C26 11.6944 25.9198 11.8288 25.7895 11.9012L20.9676 14.5935V19.9294C20.9676 20.0008 20.9483 20.071 20.9115 20.1328C20.8747 20.1947 20.8219 20.2461 20.7582 20.2819L10.6925 25.9007C10.6694 25.9133 10.6444 25.9214 10.6192 25.9302C10.6097 25.9331 10.6009 25.9388 10.5909 25.9413C10.5206 25.9593 10.4466 25.9593 10.3762 25.9413C10.3647 25.9384 10.3542 25.9322 10.3432 25.9281C10.3202 25.9199 10.2961 25.9129 10.2742 25.9007L0.210539 20.2818C0.146589 20.2462 0.0934518 20.1949 0.0564871 20.133C0.0195224 20.0711 3.81228e-05 20.0009 0 19.9294L0 3.21613C0 3.17949 0.00528125 3.14394 0.014625 3.10947C0.0177734 3.09775 0.0250859 3.08712 0.0293516 3.0754C0.0371719 3.05412 0.0445859 3.03226 0.0560625 3.01246C0.0638828 2.99927 0.0753594 2.98863 0.0848047 2.97642C0.0968906 2.96017 0.107859 2.94343 0.121977 2.92915C0.134062 2.91753 0.149805 2.90886 0.163414 2.89871C0.178648 2.8865 0.192156 2.87331 0.209422 2.86365H0.20993L5.24195 0.0542753C5.30567 0.0187155 5.3779 0 5.45142 0C5.52494 0 5.59717 0.0187155 5.66089 0.0542753L10.6929 2.86365H10.6939C10.7107 2.8739 10.7249 2.8865 10.74 2.89822C10.7536 2.90837 10.7689 2.91753 10.7809 2.92875C10.7956 2.94343 10.806 2.96027 10.8185 2.97642C10.8275 2.98863 10.8396 2.99927 10.8469 3.01246C10.8589 3.03275 10.8657 3.05412 10.8741 3.0755C10.8783 3.08712 10.8856 3.09775 10.8887 3.10996C10.8984 3.14453 10.9033 3.18028 10.9034 3.21613V13.6549L15.0966 11.3137V5.97725C15.0966 5.9418 15.1018 5.90565 15.1113 5.87168C15.1149 5.85946 15.1217 5.84883 15.1259 5.83721C15.1343 5.81584 15.1416 5.79387 15.1531 5.77418C15.1609 5.76098 15.1724 5.75034 15.1815 5.73813C15.194 5.72188 15.2044 5.70514 15.219 5.69086C15.2312 5.67924 15.2464 5.67057 15.26 5.66043C15.2757 5.64821 15.2893 5.63502 15.3061 5.62537H15.3066L20.3391 2.81599C20.4028 2.78038 20.4751 2.76164 20.5486 2.76164C20.6221 2.76164 20.6943 2.78038 20.7581 2.81599L25.7901 5.62537C25.8078 5.63551 25.8215 5.64822 25.8372 5.65984C25.8502 5.67008 25.8654 5.67924 25.8775 5.69037C25.8921 5.70514 25.9026 5.72188 25.9151 5.73813C25.9246 5.75034 25.9361 5.76098 25.9435 5.77418C25.9555 5.79387 25.9623 5.81584 25.9706 5.83721C25.9754 5.84883 25.9822 5.85946 25.9854 5.87168ZM25.1612 11.3138V6.68102L23.4002 7.664L20.9675 9.02231V13.655L25.1617 11.3138H25.1612ZM20.1292 19.6943V15.0583L17.7362 16.3837L10.9029 20.1655V24.8449L20.1292 19.6941V19.6943ZM0.838805 3.91931V19.6943L10.064 24.8445V20.166L5.24469 17.5211L5.24316 17.5201L5.24113 17.5191C5.22488 17.5099 5.21117 17.4967 5.19604 17.4856C5.18284 17.4754 5.1677 17.4673 5.15623 17.4561L5.15521 17.4546C5.1416 17.4419 5.13216 17.4261 5.12068 17.4119C5.11012 17.3981 5.09763 17.3865 5.0892 17.3723L5.08869 17.3708C5.07924 17.3556 5.07345 17.3373 5.06665 17.32C5.05984 17.3048 5.05101 17.2905 5.04674 17.2744V17.2739C5.04156 17.2546 5.04055 17.2342 5.03841 17.2144C5.03638 17.1992 5.03212 17.1839 5.03212 17.1687V6.26069L2.5998 4.9018L0.838805 3.9199V3.91931ZM5.45198 0.875836L1.25927 3.21613L5.45096 5.55633L9.64305 3.21554L5.45096 0.875836H5.45198ZM7.63232 15.4809L10.0645 14.1232V3.91931L8.30375 4.90239L5.87082 6.26059V16.4644L7.63232 15.4809ZM20.5485 3.63755L16.3564 5.97775L20.5485 8.31804L24.7401 5.97725L20.5485 3.63755ZM20.1291 9.02231L17.6964 7.664L15.9355 6.68102V11.3138L18.3677 12.6716L20.1292 13.655V9.02231H20.1291ZM10.483 19.4623L16.6319 16.0583L19.7056 14.3572L15.5165 12.0185L10.6934 14.7111L6.29759 17.1651L10.483 19.4623Z" fill="#FF2D20"/>
</g>
<defs>
<clipPath id="clip0_340_496">
<rect width="26" height="26" fill="white"/>
</clipPath>
</defs>
</svg>
