<svg width="26" height="26" viewBox="0 0 26 26" fill="none" xmlns="http://www.w3.org/2000/svg">
<path fill-rule="evenodd" clip-rule="evenodd" d="M22.0523 16.9706C21.6589 17.565 21.3605 18.2964 20.5614 18.2964C19.2159 18.2964 19.1436 16.224 17.797 16.224C16.4513 16.224 16.5245 18.2964 15.1794 18.2964C13.8337 18.2964 13.7616 16.224 12.415 16.224C11.0693 16.224 11.1423 18.2964 9.79737 18.2964C8.45166 18.2964 8.37955 16.224 7.03385 16.224C5.68734 16.224 5.76026 18.2964 4.41557 18.2964C3.99246 18.2964 3.6957 18.0917 3.44504 17.811C2.48263 16.1374 1.92871 14.1761 1.92871 12.0788C1.92871 5.93994 6.67513 0.963379 12.53 0.963379C18.3851 0.963379 23.1315 5.93994 23.1315 12.079C23.1315 13.834 22.7435 15.4947 22.0523 16.9706V16.9706Z" fill="#FB70A9"/>
<path fill-rule="evenodd" clip-rule="evenodd" d="M8.29623 15.8734V20.4778C8.29623 21.3037 7.62571 21.9734 6.79899 21.9734C6.60245 21.9736 6.4078 21.935 6.22616 21.8599C6.04453 21.7848 5.87948 21.6747 5.74043 21.5357C5.60139 21.3968 5.49108 21.2319 5.41581 21.0503C5.34054 20.8688 5.30178 20.6741 5.30176 20.4776V14.9197C5.58105 14.4072 5.89996 13.9636 6.47582 13.9636C7.41223 13.9636 7.73987 15.1397 8.29623 15.8736V15.8734ZM13.9518 16.1137V23.3945C13.9518 23.6128 13.9087 23.829 13.8251 24.0307C13.7415 24.2324 13.619 24.4156 13.4646 24.57C13.3102 24.7243 13.1269 24.8467 12.9251 24.9302C12.7234 25.0137 12.5072 25.0567 12.2889 25.0566C11.3701 25.0566 10.6251 24.3124 10.6251 23.3945V15.1537C10.9385 14.5498 11.2612 13.9634 11.923 13.9634C12.9711 13.9634 13.2561 15.4344 13.952 16.1137H13.9518ZM19.2759 15.9796V21.2655C19.2759 22.0916 18.6056 22.7613 17.7789 22.7613C16.952 22.7613 16.2815 22.0916 16.2815 21.2655V14.7688C16.5417 14.3229 16.8521 13.9634 17.371 13.9634C18.3542 13.9634 18.666 15.2593 19.2759 15.9796Z" fill="#4E56A6"/>
<path fill-rule="evenodd" clip-rule="evenodd" d="M8.29623 17.2848C8.03034 16.9594 7.7161 16.7181 7.26151 16.7181C6.1817 16.7181 5.98324 18.0782 5.30176 18.6908V12.8264C5.30178 12.6299 5.34053 12.4353 5.41579 12.2537C5.49105 12.0722 5.60134 11.9072 5.74036 11.7683C5.87938 11.6294 6.04441 11.5192 6.22602 11.4441C6.40763 11.369 6.60226 11.3304 6.79879 11.3306C7.62571 11.3306 8.29623 12.0003 8.29623 12.8264V17.2848ZM13.9518 17.3894C13.6687 17.0126 13.3378 16.7183 12.8355 16.7183C11.6342 16.7183 11.5239 18.4011 10.6251 18.8669V16.273C10.6251 15.3549 11.3701 14.6108 12.2889 14.6108C12.5072 14.6108 12.7234 14.6537 12.9252 14.7372C13.1269 14.8207 13.3103 14.9431 13.4647 15.0974C13.6192 15.2518 13.7417 15.435 13.8253 15.6367C13.9089 15.8385 13.952 16.0547 13.952 16.273L13.9518 17.3894ZM19.2759 17.0983C19.0452 16.8714 18.7722 16.7183 18.4096 16.7183C17.2457 16.7183 17.106 18.298 16.2815 18.8192V13.5554C16.2815 13.1583 16.4392 12.7775 16.72 12.4967C17.0008 12.2159 17.3816 12.0582 17.7787 12.0582C18.1758 12.0582 18.5566 12.2159 18.8374 12.4967C19.1182 12.7775 19.2759 13.1583 19.2759 13.5554V17.0983Z" fill="black" fill-opacity="0.298"/>
<path fill-rule="evenodd" clip-rule="evenodd" d="M22.0523 16.9706C21.6589 17.565 21.3605 18.2964 20.5614 18.2964C19.2159 18.2964 19.1436 16.224 17.797 16.224C16.4513 16.224 16.5245 18.2964 15.1794 18.2964C13.8337 18.2964 13.7616 16.224 12.415 16.224C11.0693 16.224 11.1423 18.2964 9.79737 18.2964C8.45166 18.2964 8.37955 16.224 7.03385 16.224C5.68734 16.224 5.76026 18.2964 4.41557 18.2964C3.99246 18.2964 3.6957 18.0917 3.44504 17.811C2.48263 16.1374 1.92871 14.1761 1.92871 12.0788C1.92871 5.93994 6.67513 0.963379 12.53 0.963379C18.3851 0.963379 23.1315 5.93994 23.1315 12.079C23.1315 13.834 22.7435 15.4947 22.0523 16.9706V16.9706Z" fill="#FB70A9"/>
<path fill-rule="evenodd" clip-rule="evenodd" d="M19.7588 18.0748C22.5367 13.9449 22.6082 9.36502 19.9739 4.33301C21.9265 6.33257 23.1319 9.07557 23.1319 12.1025C23.1319 13.8514 22.7297 15.5049 22.0131 16.9759C21.606 17.567 21.2958 18.2962 20.4673 18.2962C20.2137 18.2986 19.9659 18.2212 19.7588 18.0748Z" fill="#E24CA6"/>
<path fill-rule="evenodd" clip-rule="evenodd" d="M11.9621 14.8517C15.6489 14.8517 17.2007 12.7148 17.2007 9.68011C17.2007 6.64502 14.8553 3.85205 11.9621 3.85205C9.06863 3.85205 6.72314 6.64502 6.72314 9.67991C6.72314 12.715 8.27482 14.8517 11.9621 14.8517Z" fill="white"/>
<path fill-rule="evenodd" clip-rule="evenodd" d="M12.5176 7.68549C12.5176 8.8819 11.6377 9.85243 10.553 9.85243C9.4675 9.85243 8.58838 8.8821 8.58838 7.68549C8.58838 6.48909 9.4675 5.51855 10.553 5.51855C11.6377 5.51855 12.5176 6.48888 12.5176 7.68549Z" fill="#030776"/>
<path fill-rule="evenodd" clip-rule="evenodd" d="M11.2078 7.18533C11.2078 7.73763 10.7682 8.18511 10.2255 8.18511C9.68273 8.18511 9.24316 7.73763 9.24316 7.18533C9.24316 6.63303 9.68273 6.18555 10.2255 6.18555C10.7682 6.18555 11.2078 6.63303 11.2078 7.18533Z" fill="white"/>
</svg>
