<svg width="65" height="20" viewBox="0 0 65 20" fill="none" xmlns="http://www.w3.org/2000/svg">
<path d="M8.11301 0.0655037C8.64262 -0.12869 9.23403 0.118465 9.47236 0.639257C11.6968 5.36169 13.9035 10.0753 16.1102 14.8065C16.3839 15.3891 16.0396 16.1571 15.4129 16.316C12.0322 17.3222 8.64262 18.3285 5.25307 19.3348C4.84703 19.4848 4.38802 19.3789 4.07025 19.0788C3.88489 18.8493 3.71717 18.6021 3.56712 18.3462C2.51671 16.7132 1.4663 15.0714 0.415887 13.4295C0.168732 13.0676 0.151078 12.591 0.389407 12.2202C2.76386 8.3452 5.14714 4.47016 7.53043 0.595122C7.67166 0.383275 7.8482 0.153773 8.11301 0.0655037ZM8.58084 2.64298C7.54808 7.59491 6.52415 12.5468 5.50022 17.5076C5.37665 17.8165 5.74738 18.0902 6.02984 17.9401C8.88095 17.0927 11.7409 16.2542 14.592 15.3891C14.8127 15.345 14.9451 15.1243 14.9009 14.9125C14.8921 14.8683 14.8745 14.833 14.8568 14.7977C12.959 10.6755 10.9994 6.57981 9.10163 2.45761C8.91626 2.36934 8.60732 2.387 8.58084 2.64298Z" fill="#123A50"/>
<path d="M34.8566 14.7451H36.8603V7.38345H34.8566V14.7451ZM34.7683 5.48565C34.7683 4.83246 35.1302 4.50586 35.8629 4.50586C36.5955 4.50586 36.9574 4.83246 36.9574 5.48565C36.9574 5.7946 36.8692 6.04175 36.6838 6.20946C36.4984 6.37718 36.2248 6.46545 35.8629 6.47427C35.1391 6.46545 34.7772 6.13885 34.7683 5.48565ZM62.3085 11.3291L61.5317 11.3556C60.9491 11.3732 60.5166 11.4792 60.2253 11.6734C59.9429 11.8676 59.8016 12.1588 59.8016 12.5561C59.8016 13.121 60.1282 13.4034 60.7726 13.4034C61.2404 13.4034 61.6112 13.271 61.8848 13.0062C62.1673 12.7414 62.2997 12.3795 62.2997 11.9382L62.3085 11.3291ZM62.8999 14.7451L62.5115 13.7477H62.4585C62.1231 14.1714 61.77 14.4715 61.417 14.6304C61.0639 14.7893 60.5961 14.8776 60.0223 14.8776C59.3162 14.8776 58.76 14.6745 58.354 14.2685C57.948 13.8624 57.7449 13.2887 57.7449 12.5472C57.7449 11.7705 58.0186 11.1879 58.5659 10.8171C59.1131 10.4464 59.934 10.2434 61.0374 10.1993L62.3173 10.1551V9.83735C62.3173 9.09588 61.9378 8.71632 61.1698 8.71632C60.5784 8.71632 59.8899 8.89286 59.0955 9.24594L58.4335 7.88659C59.3073 7.43641 60.2695 7.20691 61.2493 7.22457C62.2379 7.22457 62.997 7.43641 63.5178 7.86893C64.0474 8.30146 64.3122 8.95465 64.3122 9.82852V14.7363H62.8999V14.7451ZM51.8838 14.7451H49.8801V10.4464C49.8801 9.91679 49.7918 9.51958 49.6153 9.25477C49.4388 8.98996 49.1563 8.85756 48.7767 8.85756C48.2648 8.85756 47.894 9.04292 47.6557 9.42248C47.4262 9.80204 47.3026 10.4199 47.3026 11.285V14.7451H45.2901V7.38345H46.8348L47.0996 8.32794H47.2144C47.4174 7.98369 47.7175 7.71005 48.0706 7.53351C48.4678 7.33932 48.9091 7.24222 49.3505 7.25105C50.4539 7.25105 51.1953 7.61295 51.5837 8.32794H51.7603C51.9633 7.98369 52.2722 7.70122 52.6341 7.53351C53.0402 7.33932 53.4815 7.24222 53.9317 7.25105C54.7614 7.25105 55.397 7.4629 55.8207 7.89542C56.2444 8.32794 56.465 9.00761 56.465 9.9521V14.7451H54.4525V10.4464C54.4525 9.91679 54.3642 9.51958 54.1877 9.25477C54.0111 8.98996 53.7287 8.85756 53.3491 8.85756C52.8548 8.85756 52.4929 9.0341 52.2457 9.38717C51.9986 9.74025 51.8838 10.2964 51.8838 11.0555V14.7451ZM43.1451 14.2861C43.6659 13.8889 43.9307 13.3152 43.9307 12.5649C43.9396 12.2383 43.8778 11.9205 43.7454 11.6204C43.6041 11.3468 43.4011 11.1084 43.154 10.9231C42.8892 10.72 42.4655 10.5082 41.8917 10.2699C41.2473 10.0139 40.8236 9.81969 40.6383 9.68729C40.4441 9.55489 40.3558 9.396 40.3558 9.21946C40.3558 8.90169 40.6559 8.74281 41.2473 8.74281C41.5828 8.74281 41.9094 8.79577 42.2271 8.89286C42.5449 8.98996 42.8892 9.12236 43.2599 9.28125L43.869 7.83363C43.0569 7.45407 42.1742 7.25987 41.2826 7.25105C40.3558 7.25105 39.632 7.42759 39.1289 7.78949C38.6257 8.1514 38.3697 8.65454 38.3697 9.30773C38.3609 9.64316 38.4227 9.96975 38.5551 10.2699C38.6875 10.5435 38.8905 10.7818 39.1377 10.9672C39.4025 11.1702 39.8174 11.3909 40.3823 11.6292C40.7795 11.7969 41.0885 11.947 41.3268 12.0706C41.5121 12.1588 41.6799 12.2736 41.8299 12.406C41.927 12.5119 41.98 12.6443 41.9712 12.7944C41.9712 13.2181 41.6092 13.4299 40.8766 13.4299C40.4617 13.4211 40.0469 13.3593 39.6408 13.2534C39.2083 13.1475 38.7846 12.9974 38.3786 12.812V14.4715C38.7228 14.6127 39.0759 14.7187 39.4378 14.7893C39.888 14.8687 40.347 14.904 40.806 14.8952C41.8387 14.8775 42.6243 14.6745 43.1451 14.2861ZM33.7886 7.31284C33.5679 7.2687 33.3384 7.25105 33.1089 7.25105C32.6587 7.25105 32.2262 7.38345 31.8554 7.63061C31.4671 7.87776 31.1493 8.22201 30.9286 8.62805H30.8315L30.5314 7.39228H29.0132V14.7451H31.0169V11.0025C31.0169 10.4111 31.1934 9.9521 31.5553 9.61668C31.9172 9.29008 32.4115 9.12236 33.0559 9.12236C33.2589 9.12236 33.4531 9.14002 33.6473 9.18415L33.7886 7.31284ZM23.0991 9.65198H23.7699C24.3967 9.65198 24.8645 9.5284 25.1823 9.28125C25.4912 9.03409 25.6501 8.67219 25.6501 8.19553C25.6501 7.71888 25.5177 7.3658 25.2617 7.1363C25.0057 6.9068 24.5908 6.79205 24.0347 6.79205H23.1079V9.65198H23.0991ZM27.7068 8.12492C27.7068 9.15767 27.3802 9.9521 26.7358 10.4994C26.0914 11.0466 25.1646 11.3203 23.973 11.3203H23.0991V14.7451H21.0601V5.12375H24.1318C25.297 5.12375 26.1885 5.3709 26.7976 5.87404C27.4067 6.37718 27.7068 7.12747 27.7068 8.12492Z" fill="#123A50"/>
</svg>
