<svg width="23" height="25" viewBox="0 0 23 25" fill="none" xmlns="http://www.w3.org/2000/svg">
<g clip-path="url(#clip0_250_1270)">
<path d="M19.9879 12.9595C19.8415 12.792 19.687 12.6246 19.5242 12.456C19.6378 12.3366 19.7479 12.2172 19.8544 12.0977C21.8589 9.84501 22.7054 7.5841 21.921 6.22708C21.1693 4.92392 18.9318 4.53637 16.1311 5.08082C15.856 5.13467 15.5808 5.19556 15.308 5.26347C15.2553 5.08316 15.2003 4.90519 15.1417 4.72605C14.191 1.86097 12.6572 -0.000682019 11.0882 0.000488833C9.58487 0.000488833 8.13067 1.74506 7.20218 4.44387C7.11086 4.71083 7.02656 4.97895 6.94811 5.24825C6.76546 5.20375 6.5828 5.1616 6.39898 5.12297C3.44492 4.51764 1.06575 4.9169 0.282449 6.27743C-0.468067 7.58058 0.316403 9.71153 2.19094 11.8624C2.3771 12.0743 2.56912 12.2827 2.76583 12.4865C2.534 12.7241 2.31505 12.9618 2.11015 13.1995C0.280107 15.3211 -0.459871 17.4169 0.289474 18.7142C1.06341 20.056 3.40979 20.4939 6.2655 19.9319C6.49733 19.8862 6.72682 19.8347 6.95631 19.7773C7.03944 20.0701 7.13193 20.3593 7.23263 20.6473C8.15643 23.2911 9.60126 24.9783 11.0999 24.9783C12.649 24.9783 14.1992 23.1635 15.1406 20.4084C15.2155 20.1907 15.2846 19.9647 15.3513 19.7329C15.6464 19.8066 15.9449 19.871 16.2447 19.9272C18.9962 20.4482 21.1798 20.0396 21.928 18.7411C22.7019 17.3993 21.9034 15.149 19.9879 12.9595ZM1.20625 6.80899C1.68864 5.97183 3.63343 5.64517 6.18471 6.16971C6.34746 6.20249 6.51372 6.23996 6.6835 6.28211C6.4341 7.38388 6.25848 8.50087 6.15661 9.62723C5.23632 10.2747 4.35935 10.9796 3.53039 11.7406C3.34774 11.5521 3.16977 11.3578 2.99765 11.1599C1.3889 9.31813 0.754302 7.59463 1.20625 6.80899ZM6.0606 13.9629C5.42366 13.4793 4.83004 12.9852 4.29262 12.4876C4.83004 11.9935 5.42249 11.5006 6.05943 11.0194C6.03602 11.51 6.02431 12.0006 6.02548 12.4923C6.02665 12.9829 6.03836 13.4735 6.0606 13.9629ZM6.0606 18.884C4.97756 19.1252 3.86057 19.165 2.76348 19.0011C2.15581 18.9531 1.59497 18.6568 1.21328 18.1803C0.757815 17.3935 1.35144 15.7098 2.91687 13.8962C3.11357 13.669 3.31613 13.4477 3.52688 13.2323C4.35584 13.9969 5.23515 14.7064 6.15778 15.355C6.26082 16.4943 6.43762 17.6265 6.68935 18.7423C6.48094 18.795 6.27136 18.8418 6.05826 18.8852L6.0606 18.884ZM14.9286 8.84393C14.5095 8.58049 14.0856 8.32525 13.6571 8.0782C13.2344 7.83466 12.8071 7.60049 12.375 7.37451C13.1162 7.06307 13.8433 6.79728 14.5469 6.58185C14.712 7.32885 14.8397 8.08405 14.9286 8.84393ZM8.21263 4.79044C9.00764 2.47918 10.1843 1.06831 11.0906 1.06831C12.0565 1.06713 13.3093 2.58924 14.1301 5.06091C14.184 5.22249 14.2331 5.38524 14.28 5.54799C13.2028 5.88168 12.149 6.28679 11.1257 6.75982C10.1059 6.28094 9.05447 5.87231 7.97846 5.53511C8.05105 5.28454 8.12833 5.03632 8.21263 4.79044ZM7.71385 6.56897C8.4468 6.79963 9.16804 7.06775 9.87407 7.371C8.99827 7.82178 8.14589 8.31354 7.31576 8.84511C7.41645 8.04893 7.54993 7.28553 7.71385 6.56897ZM7.3181 16.1348C7.73141 16.4006 8.15174 16.6559 8.57794 16.9006C9.01232 17.15 9.45256 17.39 9.89748 17.6195C9.18561 17.9333 8.45968 18.2108 7.7197 18.4496C7.54759 17.685 7.41411 16.9134 7.3181 16.1348ZM14.1313 20.0642C13.7988 21.1215 13.2754 22.1097 12.5846 22.9785C12.2404 23.4819 11.7029 23.8191 11.1011 23.9128C10.1902 23.9128 9.02988 22.5581 8.24073 20.296C8.14706 20.0291 8.06159 19.7586 7.98314 19.487C9.06384 19.1381 10.1188 18.7166 11.1433 18.226C12.176 18.7025 13.2379 19.1111 14.3245 19.4483C14.2648 19.6544 14.2004 19.8605 14.1313 20.0642ZM14.5832 18.411C13.8725 18.1908 13.1349 17.9204 12.3832 17.6042C12.8071 17.3818 13.2332 17.1464 13.6629 16.8982C14.1044 16.643 14.5341 16.3819 14.9521 16.1149C14.8689 16.8865 14.746 17.6523 14.5832 18.411ZM15.1417 12.4876C15.1417 13.2463 15.1183 14.0039 15.0703 14.7602C14.4544 15.1771 13.8046 15.5845 13.129 15.9744C12.4546 16.3631 11.7884 16.7203 11.1351 17.0434C10.4466 16.7132 9.77103 16.3585 9.1095 15.9768C8.45148 15.5974 7.80869 15.1946 7.18111 14.7661C7.12257 14.0086 7.09329 13.2499 7.09329 12.4911C7.09329 11.7324 7.1214 10.9749 7.17877 10.2173C8.43392 9.35911 9.7523 8.59805 11.1234 7.94004C11.8025 8.27022 12.4698 8.62498 13.1255 9.00317C13.7835 9.38136 14.4287 9.78062 15.0609 10.201C15.1148 10.9608 15.1417 11.7231 15.1417 12.4876ZM16.336 6.12639C18.7362 5.66039 20.5452 5.97418 20.9983 6.75982C21.4819 7.59698 20.7899 9.44224 19.0571 11.3882C18.9611 11.4959 18.8627 11.6036 18.7597 11.7114C17.9155 10.9491 17.0209 10.2443 16.0819 9.60265C15.9871 8.49034 15.8185 7.38505 15.5761 6.29382C15.8349 6.23176 16.0878 6.17556 16.336 6.12639ZM16.1733 10.9784C16.8067 11.4409 17.4167 11.9362 17.9986 12.4619C17.419 12.9958 16.8114 13.4992 16.1791 13.9711C16.1978 13.477 16.2084 12.9817 16.2084 12.4876C16.2084 11.9842 16.1967 11.4819 16.1733 10.9784ZM21.0054 18.2084C20.5511 18.9964 18.7971 19.3254 16.4425 18.8805C16.1733 18.8301 15.8969 18.7692 15.6136 18.6978C15.8501 17.5937 16.0117 16.4744 16.0971 15.348C17.035 14.6959 17.926 13.9805 18.7655 13.2065C18.913 13.3587 19.0524 13.511 19.1847 13.6608C19.9352 14.4769 20.5288 15.4241 20.9374 16.4556C21.2021 17.0059 21.2266 17.6405 21.0054 18.2084ZM9.99115 10.5393C8.92451 11.1552 8.5592 12.5192 9.17507 13.5859C9.79094 14.6525 11.155 15.0178 12.2216 14.402C13.2883 13.7861 13.6536 12.4221 13.0377 11.3554C12.423 10.2888 11.059 9.92229 9.99115 10.5393C9.99232 10.5382 9.99115 10.5382 9.99115 10.5393Z" fill="#6563FF"/>
</g>
<defs>
<clipPath id="clip0_250_1270">
<rect width="22.2204" height="24.9778" fill="white"/>
</clipPath>
</defs>
</svg>
