<svg width="23" height="26" viewBox="0 0 23 26" fill="none" xmlns="http://www.w3.org/2000/svg">
<g clip-path="url(#clip0_340_503)">
<path d="M19.9251 5.10559C19.9072 4.97559 19.7933 4.90364 19.6992 4.89572C19.0052 4.84357 18.3112 4.79184 17.6172 4.74052C17.6172 4.74052 16.2364 3.36973 16.0849 3.21801C15.9332 3.06637 15.6371 3.11249 15.5221 3.14633C15.5052 3.15132 15.2205 3.2392 14.7494 3.38496C14.2882 2.05771 13.4742 0.838028 12.0421 0.838028C12.0026 0.838028 11.9619 0.83963 11.9212 0.841946C11.5139 0.303336 11.0094 0.0693359 10.5737 0.0693359C7.23774 0.0693359 5.64399 4.23958 5.14429 6.35875C3.84803 6.76042 2.92717 7.04597 2.80955 7.08293C2.086 7.30989 2.06312 7.33269 1.96811 8.01447C1.89661 8.53064 0.00341797 23.1716 0.00341797 23.1716L14.7556 25.9356L22.7488 24.2064C22.7488 24.2064 19.9427 5.23559 19.9251 5.10559ZM13.9341 3.63712L12.6858 4.02347C12.6863 3.9355 12.6867 3.84895 12.6867 3.7543C12.6867 2.92943 12.5722 2.26527 12.3885 1.73877C13.1264 1.83137 13.6178 2.67094 13.9341 3.63712ZM11.4732 1.90234C11.6783 2.41637 11.8117 3.15408 11.8117 4.14956C11.8117 4.20049 11.8112 4.24706 11.8108 4.29416C10.999 4.54561 10.1169 4.81861 9.23279 5.0925C9.7292 3.17669 10.6597 2.25138 11.4732 1.90234ZM10.482 0.96411C10.626 0.96411 10.7711 1.01299 10.9099 1.10853C9.84077 1.61162 8.69481 2.87867 8.21087 5.40895L6.17308 6.04008C6.73991 4.11011 8.08595 0.96411 10.482 0.96411Z" fill="#95BF46"/>
<path d="M19.6993 4.89569C19.0053 4.84354 18.3113 4.79181 17.6172 4.74049C17.6172 4.74049 16.2365 3.3697 16.0849 3.21797C16.0282 3.16152 15.9517 3.13258 15.8718 3.12012L14.7563 25.9354L22.7489 24.2064C22.7489 24.2064 19.9428 5.23556 19.9252 5.10556C19.9073 4.97556 19.7934 4.90361 19.6993 4.89569Z" fill="#5E8E3E"/>
<path d="M12.042 9.31253L11.0564 12.2443C11.0564 12.2443 10.1929 11.7834 9.13437 11.7834C7.58256 11.7834 7.50447 12.7573 7.50447 13.0027C7.50447 14.3417 10.9949 14.8547 10.9949 17.9911C10.9949 20.4587 9.4298 22.0476 7.31953 22.0476C4.7872 22.0476 3.49219 20.4716 3.49219 20.4716L4.17024 18.2313C4.17024 18.2313 5.5014 19.3742 6.62465 19.3742C7.35862 19.3742 7.65717 18.7963 7.65717 18.3741C7.65717 16.6274 4.79361 16.5495 4.79361 13.6795C4.79361 11.2639 6.52742 8.92627 10.0273 8.92627C11.3758 8.92627 12.042 9.31253 12.042 9.31253Z" fill="white"/>
</g>
<defs>
<clipPath id="clip0_340_503">
<rect width="22.7945" height="26" fill="white"/>
</clipPath>
</defs>
</svg>
