<svg width="26" height="16" viewBox="0 0 26 16" fill="none" xmlns="http://www.w3.org/2000/svg">
<g clip-path="url(#clip0_340_517)">
<path d="M13 0C9.53337 0 7.36663 1.73337 6.5 5.2C7.8 3.46663 9.31663 2.81663 11.05 3.25C12.0389 3.4972 12.7458 4.21474 13.5282 5.00886C14.8028 6.30266 16.2779 7.8 19.5 7.8C22.9666 7.8 25.1334 6.06663 26 2.6C24.7 4.33337 23.1834 4.98337 21.45 4.55C20.4611 4.3028 19.7542 3.58526 18.9718 2.79114C17.6972 1.49734 16.2221 0 13 0ZM6.5 7.8C3.03337 7.8 0.866633 9.53337 0 13C1.3 11.2666 2.81663 10.6166 4.55 11.05C5.53891 11.2972 6.24579 12.0147 7.02823 12.8089C8.30284 14.1027 9.77793 15.6 13 15.6C16.4666 15.6 18.6334 13.8666 19.5 10.4C18.2 12.1334 16.6834 12.7834 14.95 12.35C13.9611 12.1028 13.2542 11.3853 12.4718 10.5911C11.1972 9.29734 9.72207 7.8 6.5 7.8Z" fill="url(#paint0_linear_340_517)"/>
</g>
<defs>
<linearGradient id="paint0_linear_340_517" x1="-72.228" y1="499.2" x2="2173.3" y2="1793.93" gradientUnits="userSpaceOnUse">
<stop stop-color="#2298BD"/>
<stop offset="1" stop-color="#0ED7B5"/>
</linearGradient>
<clipPath id="clip0_340_517">
<rect width="26" height="15.6406" fill="white"/>
</clipPath>
</defs>
</svg>
